<?xml version="1.0" encoding="UTF-8"?>
<svg id="logo" xmlns="http://www.w3.org/2000/svg" viewBox="0 0 1000 1000">
  <defs>
    <style>
      .cls-1 {
        fill: #0e1b4d;
      }

      .cls-1, .cls-2, .cls-3 {
        stroke-width: 0px;
      }

      .cls-2 {
        fill: #018df9;
      }

      .cls-3 {
        fill: #fff;
      }
    </style>
  </defs>
  <rect class="cls-1" width="1000" height="1000"/>
  <g>
    <path class="cls-2" d="M443.62,375.18c-10.29-17.67-23.68-32.59-38.92-45.35-15.28-12.78-32.39-23.47-51.34-32.88-18.67-9.23-37.21-15.58-56.15-19.66-4.73-1.04-9.52-1.73-14.3-2.59-4.79-.75-9.65-1.13-14.53-1.69-4.88-.45-9.82-.51-14.81-.76-4.99-.13-10.04.27-15.17.43-10.54.05-20.77,2.1-30.95,3.44-5.04.96-9.98,2.31-14.94,3.47l-7.4,1.82c-2.43.72-4.8,1.61-7.2,2.41-4.77,1.67-9.53,3.34-14.28,5-4.57,2.09-9.13,4.18-13.68,6.27-2.26,1.08-4.57,2.07-6.78,3.23l-6.49,3.76c-4.29,2.56-8.69,4.97-12.87,7.71-8.06,5.91-16.5,11.42-23.81,18.39l-5.65,5.04c-1.89,1.68-3.79,3.35-5.47,5.27-3.44,3.73-6.9,7.47-10.37,11.24-.85.95-1.75,1.88-2.56,2.86l-2.34,3.06-4.67,6.18c-3.1,4.15-6.32,8.25-8.9,12.82-2.69,4.5-5.41,9.02-8.14,13.58-2.37,4.76-4.62,9.62-6.91,14.51-.91,1.95-2.99,5.95-5.15,12.12-2.23,6.14-5.66,14.04-8.03,24.11-.66,2.5-1.36,5.1-2.08,7.8-.35,1.35-.71,2.73-1.08,4.13-.25,1.43-.5,2.88-.76,4.35-.98,5.91-2.07,12.22-3.02,18.91-.42,6.73-.86,13.83-1.31,21.25-.03,7.42.45,15.18.77,23.23,2.35,32.14,13.37,68.55,34.09,101.84,2.38,4.3,5.36,8.23,8.29,12.23,2.99,3.96,5.77,8.13,9.04,11.93,6.68,7.48,13.19,15.3,20.93,21.97l5.64,5.19,2.84,2.59,3.04,2.35c4.09,3.11,8.19,6.22,12.29,9.33,2.01,1.62,4.23,2.94,6.42,4.3l6.58,4.08c4.4,2.71,8.75,5.49,13.47,7.63,4.65,2.27,9.29,4.53,13.92,6.79,4.75,2,9.62,3.7,14.42,5.52l7.23,2.65c2.45.75,4.93,1.36,7.4,2.03,4.95,1.28,9.87,2.56,14.78,3.84,19.92,3.7,39.81,5.63,58.99,4.61,19.18-.95,37.61-4.33,54.44-9.46,16.86-5.12,32.12-11.96,45.43-19.51,6.72-3.69,12.78-7.83,18.57-11.71,5.57-4.19,10.93-8.06,15.56-12.22,9.51-7.99,16.89-15.96,22.74-22.69,5.68-6.89,9.89-12.54,12.35-16.76,2.54-4.16,3.68-6.62,3.29-7.16-.35-.49-4.2,4.15-10.2,11.08-6.18,6.78-14.53,15.88-24.08,23.94-18.65,16.73-41.44,28.87-43.64,29.83-10.93,4.95-26.31,11.39-45.65,16.11-19.28,4.68-42.5,7.94-67.6,6.09-25.06-1.29-52.18-7.18-77.82-18.76-16.74-7.49-32.76-17.39-47.32-29.14,3.02,2.3,6.04,4.59,9.07,6.9,1.88,1.53,3.96,2.75,6.01,4.03l6.16,3.82c4.11,2.54,8.19,5.17,12.61,7.16,4.35,2.13,8.69,4.25,13.03,6.37,4.45,1.87,9.01,3.46,13.5,5.16l6.76,2.5c2.29.7,4.62,1.26,6.93,1.89,4.63,1.21,9.24,2.41,13.84,3.61,18.65,3.44,37.29,5.29,55.28,4.33,36.06-1.69,68.71-12.92,93.53-27.15,6.29-3.46,11.97-7.34,17.39-10.98,5.21-3.94,10.24-7.56,14.56-11.47,8.91-7.49,15.79-14.98,21.26-21.29,10.7-12.89,15.16-21.56,14.49-22.5-.35-.48-3.99,3.84-9.62,10.31-2.99,3.09-6.16,7-10.12,10.71-1.93,1.9-3.92,3.87-5.96,5.87-2.13,1.9-4.31,3.83-6.49,5.77-17.46,15.62-38.77,26.94-40.83,27.83-10.24,4.57-24.63,10.54-42.69,14.89-18,4.31-39.68,7.32-63.13,5.53-23.41-1.25-48.67-6.77-72.55-17.61-15.57-7-30.48-16.24-44.03-27.19,2.8,2.13,5.6,4.26,8.4,6.4,1.74,1.43,3.69,2.57,5.6,3.76l5.75,3.56c3.83,2.38,7.62,4.84,11.75,6.68l12.14,5.95c4.14,1.74,8.4,3.21,12.59,4.81l6.3,2.34c2.14.65,4.31,1.17,6.46,1.75,4.31,1.13,8.61,2.26,12.89,3.38,17.39,3.18,34.77,4.95,51.56,4.05,33.65-1.57,64.05-12.05,87.18-25.32,5.87-3.22,11.15-6.86,16.21-10.24,4.84-3.69,9.54-7.06,13.56-10.71,8.3-6.99,14.7-14,19.78-19.89,9.93-12.05,14.04-20.17,13.35-21.09-.36-.47-3.78,3.53-9.03,9.54-2.8,2.86-5.75,6.5-9.44,9.94-1.8,1.76-3.66,3.59-5.55,5.46-1.99,1.76-4.02,3.55-6.05,5.35-16.27,14.51-36.1,25.02-38.02,25.84-9.55,4.2-22.94,9.7-39.72,13.68-16.73,3.94-36.86,6.71-58.66,4.97-21.75-1.2-45.16-6.37-67.29-16.46-14.42-6.51-28.22-15.1-40.76-25.26l7.76,5.92c1.61,1.34,3.42,2.39,5.19,3.48l5.33,3.3c3.55,2.21,7.05,4.51,10.89,6.2l11.24,5.53c3.84,1.61,7.79,2.96,11.67,4.45l5.83,2.19c1.98.6,4,1.07,5.99,1.62,4,1.06,7.98,2.11,11.94,3.15,16.12,2.92,32.26,4.6,47.85,3.76,31.23-1.46,59.38-11.17,80.84-23.5,5.44-2.98,10.33-6.38,15.02-9.51,4.48-3.44,8.84-6.55,12.56-9.96,7.7-6.49,13.61-13.02,18.31-18.5,9.17-11.21,12.92-18.77,12.2-19.68-.37-.46-3.57,3.22-8.44,8.77-2.61,2.63-5.33,6.01-8.77,9.18-1.66,1.63-3.39,3.32-5.15,5.04-1.85,1.62-3.73,3.28-5.62,4.94-15.08,13.41-33.43,23.09-35.2,23.84-8.86,3.82-21.25,8.85-36.76,12.46-15.46,3.57-34.04,6.1-54.19,4.41-20.1-1.16-41.65-5.96-62.02-15.3-13.25-6.01-25.92-13.93-37.45-23.3l7.07,5.41c1.48,1.25,3.15,2.2,4.79,3.21l4.91,3.04c3.27,2.04,6.48,4.19,10.02,5.73l10.35,5.11c3.54,1.48,7.18,2.71,10.75,4.09l5.37,2.03c1.83.55,3.69.98,5.52,1.48,3.68.98,7.35,1.95,11,2.93,14.86,2.65,29.74,4.26,44.14,3.48,28.81-1.34,54.72-10.3,74.49-21.67,5.02-2.75,9.51-5.89,13.84-8.78,4.12-3.19,8.15-6.05,11.56-9.21,7.09-5.99,12.51-12.04,16.83-17.1,8.41-10.37,11.8-17.38,11.06-18.27-.37-.45-3.36,2.91-7.86,8.01-2.43,2.4-4.92,5.52-8.1,8.41-1.53,1.5-3.12,3.05-4.74,4.63-1.7,1.49-3.44,3.01-5.18,4.53-13.89,12.3-30.76,21.16-32.39,21.84-8.17,3.45-19.56,8-33.8,11.25-14.19,3.21-31.22,5.49-49.72,3.85-18.45-1.11-38.14-5.56-56.76-14.15-18.62-8.51-36.07-21.1-50.24-36.41-14.23-15.28-25.11-33.18-32.04-51.37-.79-2.3-1.58-4.59-2.36-6.86-.73-2.28-1.78-4.45-2.17-6.8-1.09-4.59-2.16-9.11-3.22-13.55-.57-4.53-1.19-8.96-1.84-13.28-.47-4.34-.36-8.65-.63-12.79-.11-16.62,1.68-31.41,5.04-42.97.79-2.9,1.32-5.71,2.14-8.25.9-2.51,1.75-4.85,2.53-7,.74-2.18,1.41-4.17,2.02-5.97.71-1.76,1.48-3.27,2.05-4.63,16.7-40.2,49.5-70.87,88.39-85.69,4.75-2.24,9.89-3.29,14.89-4.86,4.97-1.77,10.22-2.31,15.39-3.38,5.16-1.26,10.49-1.34,15.8-1.85,5.32-.68,10.69-.48,16.09-.52,10.78.44,21.61,1.8,32.41,4.24,10.77,2.55,21.41,6.31,31.82,11.14,13.67,6.47,26.38,13.68,37.88,22.65,11.45,8.95,21.66,19.72,29.16,32.82.34.57.9.84,1.26.7.36-.15.41-.73-.03-1.34-7.47-13.24-17.6-24.29-29.08-33.6-11.52-9.33-24.37-17-38.39-23.89-13.82-6.76-27.47-11.45-41.44-14.49-3.49-.78-7.04-1.26-10.56-1.94-3.54-.57-7.15-.82-10.75-1.29-3.62-.36-7.29-.37-11-.6-3.71-.11-7.45.25-11.26.33-7.85-.1-15.37,1.6-22.94,2.41-3.73.7-7.37,1.74-11.04,2.55l-5.49,1.27c-1.8.52-3.54,1.21-5.31,1.8-3.54,1.2-7.07,2.39-10.6,3.59-3.39,1.55-6.76,3.09-10.13,4.63-1.68.78-3.41,1.48-5.06,2.32l-4.8,2.8c-3.18,1.9-6.48,3.62-9.6,5.63-5.93,4.45-12.34,8.37-17.73,13.61l-4.23,3.72c-1.42,1.23-2.87,2.45-4.09,3.89-2.57,2.77-5.15,5.55-7.74,8.34-.64.71-1.32,1.38-1.93,2.11l-1.72,2.29-3.46,4.6c-2.31,3.08-4.77,6.08-6.62,9.52-2.01,3.33-4.03,6.69-6.07,10.07-1.67,3.57-3.35,7.17-5.05,10.8-.68,1.45-2.28,4.38-3.82,8.98-1.04,2.94-2.53,6.48-3.91,10.58.08-.25.13-.53.21-.78.99-2.75,1.91-5.31,2.76-7.68.82-2.38,1.57-4.56,2.24-6.53.78-1.93,1.61-3.58,2.24-5.07,18.44-43.96,54.34-77.3,96.89-93.4,5.21-2.4,10.81-3.59,16.28-5.27,5.44-1.88,11.17-2.51,16.82-3.64,5.64-1.33,11.44-1.44,17.24-1.98,5.8-.7,11.65-.5,17.53-.51,11.74.5,23.56,2.01,35.33,4.72,11.74,2.81,23.34,6.95,34.67,12.25,14.88,7.1,28.65,15.06,41.08,24.88,12.38,9.81,23.41,21.54,31.62,35.75.37.62.95.93,1.32.79.36-.14.39-.76-.08-1.42-8.18-14.35-19.12-26.36-31.54-36.54-12.46-10.19-26.38-18.61-41.63-26.13-15.03-7.38-29.9-12.48-45.12-15.78-3.8-.85-7.66-1.38-11.5-2.11-3.86-.62-7.77-.9-11.69-1.39-3.93-.38-7.92-.4-11.95-.64-4.03-.12-8.1.26-12.24.36-8.52-.06-16.72,1.72-24.94,2.67-4.06.77-8.02,1.88-12.02,2.78l-5.97,1.41c-1.96.57-3.86,1.31-5.78,1.95-3.85,1.32-7.69,2.63-11.52,3.94-3.68,1.68-7.35,3.36-11.02,5.04-1.83.86-3.7,1.62-5.49,2.55l-5.23,3.04c-3.46,2.06-7.04,3.96-10.42,6.15-6.46,4.82-13.38,9.13-19.25,14.81l-4.59,4.05c-1.54,1.34-3.1,2.68-4.43,4.24-2.79,3.01-5.58,6.03-8.39,9.06-.69.77-1.43,1.5-2.09,2.3l-1.87,2.49-3.76,4.99c-2.5,3.35-5.16,6.62-7.19,10.35-2.18,3.62-4.37,7.27-6.58,10.95-1.82,3.88-3.66,7.79-5.51,11.73-.74,1.57-2.46,4.77-4.15,9.77-1.14,3.2-2.74,7.05-4.23,11.52.08-.28.15-.58.24-.85,1.07-2.99,2.07-5.78,2.99-8.35.9-2.58,1.72-4.95,2.47-7.09.85-2.09,1.75-3.9,2.44-5.51,20.18-47.72,59.17-83.74,105.38-101.11,5.67-2.56,11.73-3.88,17.68-5.68,5.91-1.99,12.11-2.71,18.24-3.91,6.12-1.39,12.4-1.55,18.67-2.1,6.28-.72,12.61-.51,18.97-.49,12.71.56,25.51,2.23,38.25,5.21,12.71,3.07,25.27,7.58,37.51,13.35,16.09,7.72,30.91,16.43,44.27,27.11,13.32,10.66,25.16,23.37,34.08,38.68.4.67,1.01,1.01,1.38.89.36-.14.38-.79-.14-1.5-8.88-15.45-20.64-28.44-34-39.48-13.4-11.05-28.38-20.23-44.86-28.38-16.24-7.99-32.34-13.52-48.79-17.07-4.11-.91-8.28-1.5-12.43-2.27-4.17-.66-8.4-.98-12.64-1.49-4.25-.41-8.56-.44-12.9-.68-4.35-.12-8.75.26-13.21.38-9.19-.02-18.07,1.85-26.95,2.92-4.38.83-8.68,2.02-12.99,3.01l-6.45,1.54c-2.11.62-4.17,1.41-6.25,2.1-4.16,1.44-8.3,2.87-12.44,4.29-3.98,1.82-7.95,3.64-11.91,5.45-1.97.93-3.99,1.77-5.92,2.77l-5.65,3.28c-3.74,2.23-7.59,4.3-11.24,6.67-7,5.18-14.42,9.89-20.77,16l-4.94,4.38c-1.66,1.46-3.33,2.9-4.78,4.58-3.01,3.25-6.02,6.51-9.05,9.79-.75.83-1.53,1.63-2.25,2.49l-2.03,2.68-4.06,5.39c-2.7,3.61-5.54,7.16-7.76,11.17-2.35,3.91-4.72,7.86-7.1,11.83-2.04,4.16-3.98,8.4-5.98,12.66-.8,1.7-2.63,5.16-4.48,10.55-1.24,3.46-2.95,7.62-4.56,12.45.09-.3.16-.63.26-.92,1.15-3.23,2.23-6.25,3.22-9.03.98-2.79,1.88-5.34,2.69-7.64.92-2.26,1.89-4.21,2.63-5.95,21.92-51.48,64-90.17,113.88-108.83,6.12-2.72,12.65-4.17,19.07-6.08,6.39-2.1,13.06-2.91,19.67-4.18,6.6-1.46,13.35-1.65,20.11-2.22,6.76-.73,13.56-.52,20.41-.47,13.68.62,27.47,2.45,41.18,5.69,13.68,3.34,27.19,8.21,40.36,14.45,17.3,8.35,33.17,17.8,47.47,29.33,14.25,11.52,26.91,25.19,36.53,41.6.43.72,1.06,1.1,1.44.98.37-.13.36-.82-.19-1.59-9.58-16.56-22.17-30.51-36.46-42.41-14.34-11.91-30.39-21.85-48.1-30.63-17.46-8.61-34.77-14.55-52.47-18.36-4.42-.98-8.9-1.62-13.37-2.43-4.48-.7-9.02-1.06-13.58-1.59-4.57-.43-9.19-.48-13.86-.72-4.67-.12-9.39.27-14.19.41-9.87.01-19.42,1.97-28.95,3.18-4.71.9-9.33,2.17-13.97,3.24l-6.93,1.68c-2.27.67-4.49,1.51-6.73,2.26-4.47,1.55-8.92,3.1-13.36,4.65-4.27,1.96-8.54,3.91-12.79,5.86-2.12,1-4.28,1.92-6.35,3l-6.07,3.52c-4.02,2.39-8.14,4.63-12.05,7.19-7.53,5.54-15.46,10.65-22.29,17.19l-5.3,4.71c-1.77,1.57-3.56,3.13-5.12,4.92-3.23,3.49-6.46,6.99-9.71,10.51-.8.89-1.64,1.75-2.4,2.68l-2.18,2.87-4.37,5.78c-2.9,3.88-5.93,7.71-8.33,12-2.52,4.21-5.06,8.44-7.62,12.7-2.2,4.46-4.3,9.01-6.44,13.59-.85,1.83-2.81,5.55-4.82,11.34-1.35,3.73-3.17,8.22-4.9,13.43.1-.34.19-.71.29-1.05,1.24-3.47,2.39-6.71,3.45-9.7,1.06-2.99,2.03-5.73,2.91-8.2.99-2.43,2.02-4.52,2.83-6.39,23.66-55.24,68.84-96.61,122.38-116.54,6.58-2.87,13.58-4.47,20.46-6.49,6.86-2.22,14-3.12,21.09-4.44,7.08-1.53,14.31-1.76,21.54-2.35,7.24-.75,14.52-.53,21.85-.45,14.65.68,29.42,2.67,44.1,6.17,14.66,3.6,29.12,8.84,43.2,15.56,18.51,8.97,35.44,19.17,50.67,31.56,15.18,12.38,28.66,27.01,38.99,44.53.46.77,1.12,1.19,1.5,1.07.37-.13.34-.85-.24-1.67Z"/>
    <path class="cls-3" d="M163.91,437.42h54.82l39.21,94.81h.59l38.43-94.81h54.62v132.65h-35.11l.59-101.44h-.78l-43.5,101.44h-30.63l-43.11-101.44h-.59l.59,101.44h-35.11v-132.65Z"/>
    <path class="cls-3" d="M376.16,437.42h84.08c40.58,0,49.94,10.34,49.94,39.6v3.9c0,20.68-5.66,31.02-21.07,34.53v.78c17.36,2.93,21.26,8.58,21.26,32.97v20.87h-36.29v-14.83c0-21.65-3.9-24.39-33.16-24.39h-28.68v39.21h-36.09v-132.65ZM448.73,504.14c21.26,0,24.97-3.32,24.97-18.34v-3.32c0-15.02-3.71-17.75-25.17-17.75h-36.29v39.41h36.48Z"/>
    <rect class="cls-2" x="531.25" y="436.96" width="31.02" height="31.02" rx="15.51" ry="15.51"/>
    <path class="cls-2" d="M562.26,476.49v93.59h-31.01v-93.59c4.46,2.9,9.79,4.58,15.51,4.58s11.05-1.68,15.51-4.58Z"/>
    <path class="cls-2" d="M582.55,476.44h30.63v14.05h.19c4.88-10.93,13.27-15.61,27.9-15.61h1.37c26.14,0,33.55,8.58,33.55,38.43v56.77h-31.02v-53.26c0-14.83-1.95-18.14-14.44-18.14h-1.56c-12.29,0-15.61,4.49-15.61,18.34v53.06h-31.02v-93.64Z"/>
    <path class="cls-3" d="M698.24,437.42h84.08c40.58,0,49.94,10.34,49.94,39.6v3.9c0,20.68-5.66,31.02-21.07,34.53v.78c17.36,2.93,21.26,8.58,21.26,32.97v20.87h-36.29v-14.83c0-21.65-3.9-24.39-33.16-24.39h-28.68v39.21h-36.09v-132.65ZM770.81,504.14c21.26,0,24.97-3.32,24.97-18.34v-3.32c0-15.02-3.71-17.75-25.17-17.75h-36.28v39.41h36.48Z"/>
    <path class="cls-3" d="M893.12,465.71h-46.82v-28.29h130.12v28.29h-46.62v104.37h-36.67v-104.37Z"/>
  </g>
</svg>