<?xml version="1.0" encoding="UTF-8"?>
<svg id="logo" xmlns="http://www.w3.org/2000/svg" viewBox="0 0 680 325.11">
  <defs>
    <style>
      .cls-1 {
        fill: #018df9;
      }

      .cls-1, .cls-2 {
        stroke-width: 0px;
      }

      .cls-2 {
        fill: #fff;
      }
    </style>
  </defs>
  <path class="cls-1" d="M299.76,73.47c-7.34-12.61-16.9-23.26-27.77-32.37-10.91-9.12-23.12-16.75-36.64-23.46-13.32-6.59-26.55-11.12-40.07-14.03-3.37-.74-6.8-1.24-10.21-1.85-3.42-.53-6.89-.81-10.37-1.21-3.48-.32-7.01-.37-10.57-.54-3.56-.09-7.16.19-10.82.31-7.52.04-14.82,1.5-22.09,2.45-3.6.69-7.12,1.65-10.66,2.47l-5.28,1.3c-1.73.51-3.43,1.15-5.14,1.72-3.41,1.19-6.8,2.38-10.19,3.57-3.26,1.49-6.51,2.99-9.76,4.47-1.61.77-3.26,1.48-4.84,2.3l-4.63,2.68c-3.06,1.82-6.2,3.55-9.19,5.5-5.75,4.22-11.77,8.15-16.99,13.12l-4.03,3.6c-1.35,1.2-2.71,2.39-3.9,3.76-2.46,2.66-4.92,5.33-7.4,8.02-.61.68-1.25,1.34-1.83,2.04l-1.67,2.19-3.33,4.41c-2.21,2.96-4.51,5.88-6.35,9.15-1.92,3.21-3.86,6.44-5.81,9.69-1.69,3.4-3.3,6.87-4.93,10.36-.65,1.39-2.13,4.24-3.67,8.65-1.59,4.38-4.04,10.02-5.73,17.21-.47,1.78-.97,3.64-1.48,5.56-.25.96-.51,1.95-.77,2.95-.18,1.02-.36,2.05-.54,3.11-.7,4.22-1.48,8.72-2.16,13.49-.3,4.81-.61,9.87-.94,15.16-.02,5.3.32,10.84.55,16.58,1.68,22.94,9.54,48.92,24.33,72.68,1.7,3.07,3.83,5.87,5.92,8.73,2.13,2.82,4.12,5.8,6.45,8.51,4.77,5.34,9.41,10.92,14.94,15.68l4.03,3.7,2.03,1.85,2.17,1.68c2.92,2.22,5.84,4.44,8.77,6.66,1.44,1.15,3.02,2.1,4.58,3.07l4.7,2.91c3.14,1.94,6.25,3.92,9.61,5.45,3.32,1.62,6.63,3.23,9.93,4.84,3.39,1.43,6.86,2.64,10.29,3.94l5.16,1.89c1.75.53,3.52.97,5.28,1.45,3.53.92,7.05,1.83,10.55,2.74,14.21,2.64,28.41,4.02,42.1,3.29,13.69-.68,26.84-3.09,38.85-6.75,12.03-3.65,22.92-8.53,32.42-13.92,4.8-2.63,9.12-5.59,13.25-8.36,3.97-2.99,7.8-5.76,11.1-8.72,6.79-5.7,12.05-11.39,16.23-16.19,4.05-4.92,7.06-8.95,8.81-11.96,1.81-2.97,2.62-4.72,2.35-5.11-.25-.35-3,2.96-7.28,7.91-4.41,4.84-10.37,11.33-17.18,17.08-13.31,11.94-29.57,20.6-31.14,21.29-7.8,3.53-18.78,8.13-32.58,11.5-13.76,3.34-30.33,5.66-48.25,4.35-17.89-.92-37.24-5.12-55.53-13.39-11.95-5.35-23.38-12.41-33.77-20.79,2.16,1.64,4.31,3.28,6.47,4.92,1.34,1.09,2.83,1.96,4.29,2.88l4.4,2.73c2.94,1.82,5.84,3.69,9,5.11,3.1,1.52,6.2,3.03,9.3,4.55,3.17,1.33,6.43,2.47,9.64,3.69l4.83,1.78c1.64.5,3.3.9,4.95,1.35,3.3.86,6.6,1.72,9.87,2.58,13.31,2.45,26.61,3.78,39.45,3.09,25.74-1.21,49.03-9.22,66.75-19.38,4.49-2.47,8.54-5.24,12.41-7.83,3.72-2.81,7.3-5.4,10.39-8.18,6.36-5.34,11.27-10.69,15.17-15.2,7.63-9.2,10.82-15.39,10.34-16.06-.25-.34-2.85,2.74-6.86,7.36-2.13,2.2-4.4,4.99-7.22,7.64-1.38,1.35-2.8,2.76-4.25,4.19-1.52,1.35-3.08,2.73-4.63,4.11-12.46,11.15-27.67,19.23-29.14,19.86-7.31,3.26-17.57,7.53-30.46,10.63-12.85,3.07-28.32,5.23-45.05,3.95-16.71-.89-34.73-4.83-51.78-12.57-11.11-5-21.75-11.59-31.42-19.4,2,1.52,3.99,3.04,5.99,4.57,1.24,1.02,2.63,1.83,4,2.68l4.1,2.54c2.74,1.69,5.44,3.45,8.38,4.77l8.66,4.25c2.96,1.24,5.99,2.29,8.98,3.43l4.49,1.67c1.52.46,3.08.83,4.61,1.25,3.08.81,6.15,1.61,9.2,2.41,12.41,2.27,24.82,3.53,36.8,2.89,24.01-1.12,45.71-8.6,62.22-18.07,4.19-2.3,7.96-4.9,11.57-7.31,3.46-2.64,6.81-5.04,9.68-7.64,5.92-4.99,10.49-9.99,14.12-14.2,7.09-8.6,10.02-14.39,9.53-15.05-.26-.33-2.7,2.52-6.44,6.81-2,2.04-4.1,4.64-6.74,7.1-1.28,1.26-2.61,2.56-3.96,3.89-1.42,1.26-2.87,2.54-4.32,3.82-11.61,10.36-25.76,17.85-27.13,18.44-6.82,3-16.37,6.92-28.35,9.76-11.94,2.81-26.31,4.79-41.86,3.55-15.52-.86-32.23-4.54-48.02-11.75-10.29-4.65-20.14-10.77-29.09-18.03l5.54,4.22c1.15.96,2.44,1.7,3.71,2.49l3.8,2.36c2.53,1.57,5.03,3.22,7.77,4.43l8.02,3.95c2.74,1.15,5.56,2.11,8.33,3.18l4.16,1.56c1.41.43,2.85.77,4.28,1.15,2.85.75,5.69,1.5,8.52,2.25,11.51,2.08,23.02,3.28,34.15,2.69,22.29-1.04,42.38-7.97,57.69-16.77,3.88-2.13,7.37-4.55,10.72-6.79,3.2-2.46,6.31-4.68,8.96-7.11,5.49-4.63,9.71-9.29,13.07-13.2,6.55-8,9.22-13.4,8.71-14.05-.26-.33-2.55,2.3-6.03,6.26-1.86,1.88-3.81,4.29-6.26,6.55-1.19,1.16-2.42,2.37-3.67,3.6-1.32,1.16-2.66,2.34-4.01,3.53-10.77,9.57-23.86,16.48-25.12,17.01-6.32,2.73-15.17,6.31-26.24,8.89-11.03,2.55-24.29,4.35-38.67,3.15-14.34-.83-29.72-4.26-44.26-10.92-9.45-4.29-18.5-9.94-26.73-16.63l5.05,3.86c1.05.89,2.25,1.57,3.42,2.29l3.5,2.17c2.33,1.45,4.63,2.99,7.15,4.09l7.39,3.65c2.53,1.06,5.13,1.93,7.67,2.92l3.83,1.45c1.3.39,2.63.7,3.94,1.05,2.63.7,5.24,1.39,7.85,2.09,10.6,1.89,21.22,3.04,31.5,2.49,20.56-.96,39.05-7.35,53.16-15.47,3.58-1.96,6.79-4.21,9.88-6.26,2.94-2.28,5.81-4.32,8.25-6.57,5.06-4.28,8.93-8.59,12.01-12.2,6-7.4,8.42-12.4,7.89-13.04-.27-.32-2.39,2.08-5.61,5.71-1.73,1.71-3.51,3.94-5.78,6-1.09,1.07-2.23,2.17-3.38,3.3-1.22,1.06-2.45,2.14-3.7,3.23-9.92,8.78-21.95,15.1-23.12,15.59-5.83,2.46-13.96,5.71-24.12,8.03-10.12,2.29-22.28,3.92-35.48,2.75-13.16-.79-27.22-3.97-40.5-10.1-13.29-6.08-25.74-15.06-35.85-25.98-10.15-10.9-17.92-23.68-22.87-36.66-.57-1.64-1.13-3.27-1.69-4.89-.52-1.63-1.27-3.18-1.55-4.85-.78-3.28-1.54-6.5-2.3-9.67-.41-3.23-.85-6.39-1.31-9.47-.34-3.1-.25-6.17-.45-9.13-.08-11.86,1.2-22.41,3.6-30.67.57-2.07.94-4.08,1.53-5.89.65-1.79,1.25-3.46,1.8-5,.53-1.55,1.01-2.97,1.44-4.26.5-1.26,1.06-2.33,1.46-3.3,11.92-28.69,35.33-50.57,63.08-61.15,3.39-1.6,7.06-2.35,10.63-3.47,3.55-1.26,7.29-1.65,10.99-2.41,3.68-.9,7.49-.95,11.28-1.32,3.8-.49,7.63-.35,11.49-.37,7.69.31,15.42,1.28,23.13,3.03,7.69,1.82,15.28,4.51,22.71,7.95,9.75,4.62,18.83,9.77,27.03,16.17,8.17,6.39,15.46,14.07,20.81,23.42.24.41.64.6.9.5.26-.11.29-.52-.02-.95-5.33-9.45-12.56-17.33-20.75-23.98-8.22-6.66-17.39-12.13-27.4-17.05-9.86-4.82-19.6-8.17-29.57-10.34-2.49-.56-5.02-.9-7.54-1.39-2.53-.41-5.1-.59-7.67-.92-2.58-.26-5.2-.26-7.85-.43-2.65-.08-5.32.18-8.04.24-5.6-.07-10.97,1.14-16.37,1.72-2.66.5-5.26,1.24-7.88,1.82l-3.92.9c-1.28.37-2.53.86-3.79,1.28-2.53.86-5.05,1.71-7.56,2.56-2.42,1.1-4.83,2.2-7.23,3.3-1.2.56-2.43,1.05-3.61,1.66l-3.43,2c-2.27,1.35-4.63,2.58-6.85,4.02-4.23,3.18-8.81,5.97-12.65,9.71l-3.02,2.65c-1.02.88-2.05,1.75-2.92,2.78-1.83,1.98-3.67,3.96-5.52,5.95-.46.5-.94.98-1.38,1.51l-1.23,1.64-2.47,3.28c-1.65,2.2-3.4,4.34-4.73,6.8-1.43,2.38-2.88,4.78-4.33,7.19-1.19,2.55-2.39,5.12-3.6,7.71-.49,1.03-1.63,3.13-2.73,6.41-.75,2.1-1.8,4.62-2.79,7.55.05-.18.09-.38.15-.55.7-1.96,1.36-3.79,1.97-5.48.58-1.7,1.12-3.25,1.6-4.66.55-1.37,1.15-2.56,1.6-3.62,13.16-31.37,38.78-55.17,69.14-66.66,3.72-1.71,7.71-2.56,11.62-3.76,3.88-1.34,7.97-1.79,12-2.6,4.02-.95,8.17-1.03,12.3-1.41,4.14-.5,8.31-.35,12.51-.36,8.38.35,16.82,1.44,25.21,3.37,8.38,2.01,16.66,4.96,24.74,8.74,10.62,5.07,20.44,10.75,29.31,17.76,8.84,7,16.71,15.37,22.57,25.51.26.44.68.66.95.57.26-.1.28-.55-.06-1.01-5.83-10.24-13.65-18.81-22.51-26.08-8.89-7.27-18.82-13.28-29.71-18.65-10.73-5.26-21.34-8.91-32.2-11.26-2.71-.6-5.47-.98-8.2-1.5-2.75-.44-5.55-.64-8.35-.99-2.81-.27-5.66-.29-8.53-.46-2.87-.08-5.78.18-8.73.25-6.08-.04-11.93,1.23-17.8,1.9-2.89.55-5.72,1.34-8.58,1.98l-4.26,1c-1.4.41-2.75.93-4.13,1.39-2.75.94-5.49,1.88-8.22,2.81-2.63,1.2-5.25,2.4-7.86,3.6-1.3.61-2.64,1.16-3.92,1.82l-3.73,2.17c-2.47,1.47-5.02,2.82-7.44,4.39-4.61,3.44-9.55,6.52-13.74,10.57l-3.27,2.89c-1.1.96-2.21,1.91-3.16,3.02-1.99,2.15-3.99,4.3-5.99,6.47-.49.55-1.02,1.07-1.49,1.64l-1.34,1.77-2.68,3.56c-1.79,2.39-3.68,4.73-5.13,7.38-1.56,2.59-3.12,5.19-4.7,7.81-1.3,2.77-2.61,5.56-3.93,8.37-.53,1.12-1.75,3.41-2.96,6.97-.82,2.28-1.95,5.03-3.02,8.22.06-.2.11-.42.17-.61.76-2.13,1.48-4.12,2.13-5.96.64-1.84,1.23-3.53,1.76-5.06.6-1.49,1.25-2.78,1.74-3.93,14.4-34.06,42.23-59.76,75.21-72.16,4.04-1.82,8.37-2.77,12.61-4.05,4.22-1.42,8.64-1.94,13.02-2.79,4.37-1,8.85-1.1,13.33-1.5,4.48-.51,9-.36,13.54-.35,9.07.4,18.21,1.59,27.3,3.72,9.07,2.19,18.03,5.41,26.77,9.53,11.48,5.51,22.06,11.72,31.6,19.35,9.5,7.61,17.96,16.68,24.32,27.6.28.48.72.72.99.63.26-.1.27-.57-.1-1.07-6.34-11.03-14.73-20.29-24.26-28.17-9.56-7.89-20.25-14.44-32.02-20.26-11.59-5.71-23.08-9.65-34.82-12.18-2.93-.65-5.91-1.07-8.87-1.62-2.98-.47-5.99-.7-9.02-1.06-3.03-.29-6.11-.31-9.21-.48-3.1-.09-6.24.19-9.43.27-6.56-.02-12.9,1.32-19.23,2.09-3.13.6-6.19,1.44-9.27,2.15l-4.6,1.1c-1.51.44-2.98,1.01-4.46,1.5-2.97,1.02-5.93,2.05-8.87,3.06-2.84,1.3-5.67,2.59-8.5,3.89-1.41.66-2.85,1.27-4.23,1.98l-4.03,2.34c-2.67,1.59-5.41,3.07-8.02,4.76-4.99,3.7-10.29,7.06-14.82,11.42l-3.53,3.13c-1.18,1.04-2.38,2.07-3.41,3.27-2.15,2.32-4.3,4.65-6.46,6.99-.53.59-1.09,1.16-1.6,1.78l-1.45,1.91-2.9,3.85c-1.93,2.58-3.96,5.11-5.54,7.97-1.68,2.79-3.37,5.61-5.07,8.44-1.46,2.97-2.84,6-4.27,9.03-.57,1.21-1.88,3.69-3.2,7.53-.89,2.47-2.1,5.44-3.25,8.88.06-.21.12-.45.18-.66.82-2.31,1.59-4.46,2.3-6.44.7-1.99,1.34-3.81,1.92-5.46.65-1.61,1.35-3,1.88-4.25,15.64-36.74,45.68-64.35,81.27-77.67,4.37-1.94,9.03-2.98,13.61-4.34,4.56-1.5,9.32-2.08,14.04-2.98,4.71-1.04,9.53-1.18,14.35-1.59,4.82-.52,9.68-.37,14.57-.33,9.76.44,19.6,1.75,29.39,4.06,9.77,2.38,19.41,5.86,28.8,10.31,12.35,5.96,23.68,12.7,33.88,20.94,10.17,8.22,19.21,17.98,26.07,29.69.31.51.76.79,1.03.7.26-.1.25-.59-.13-1.13-6.84-11.82-15.82-21.77-26.02-30.27-10.23-8.5-21.69-15.59-34.33-21.86-12.46-6.15-24.82-10.38-37.45-13.11-3.15-.7-6.35-1.15-9.54-1.74-3.2-.5-6.44-.75-9.69-1.13-3.26-.31-6.56-.34-9.89-.51-3.33-.09-6.7.19-10.13.29-7.04.01-13.86,1.41-20.66,2.27-3.36.64-6.66,1.55-9.97,2.31l-4.94,1.2c-1.62.48-3.2,1.08-4.8,1.61-3.19,1.11-6.36,2.21-9.53,3.32-3.05,1.4-6.09,2.79-9.13,4.18-1.51.71-3.05,1.37-4.53,2.14l-4.33,2.51c-2.87,1.71-5.81,3.31-8.6,5.13-5.37,3.96-11.03,7.6-15.91,12.27l-3.78,3.36c-1.27,1.12-2.54,2.23-3.66,3.51-2.3,2.49-4.61,4.99-6.93,7.5-.57.64-1.17,1.25-1.72,1.91l-1.56,2.05-3.12,4.13c-2.07,2.77-4.23,5.5-5.94,8.56-1.8,3-3.61,6.02-5.44,9.07-1.57,3.18-3.07,6.43-4.6,9.7-.61,1.3-2.01,3.96-3.44,8.09-.96,2.66-2.27,5.87-3.5,9.59.07-.24.13-.51.21-.75.88-2.48,1.71-4.79,2.47-6.92.76-2.13,1.45-4.09,2.08-5.85.7-1.73,1.44-3.23,2.02-4.56C41.5,57.63,73.74,28.11,111.95,13.88c4.7-2.05,9.69-3.19,14.6-4.63,4.89-1.58,9.99-2.22,15.05-3.17,5.06-1.09,10.21-1.26,15.38-1.68,5.17-.54,10.36-.38,15.6-.32,10.45.48,20.99,1.91,31.47,4.41,10.46,2.57,20.78,6.31,30.83,11.1,13.21,6.4,25.29,13.68,36.16,22.52,10.84,8.83,20.45,19.28,27.82,31.78.33.55.8.85,1.07.77.26-.09.24-.61-.17-1.19Z"/>
  <path class="cls-2" d="M100.15,117.9h39.12l27.98,67.66h.42l27.43-67.66h38.98v94.67h-25.06l.42-72.39h-.56l-31.05,72.39h-21.86l-30.77-72.39h-.42l.42,72.39h-25.06v-94.67Z"/>
  <path class="cls-2" d="M251.62,117.9h60c28.96,0,35.64,7.38,35.64,28.26v2.78c0,14.76-4.04,22.14-15.04,24.64v.56c12.39,2.09,15.18,6.13,15.18,23.53v14.9h-25.9v-10.58c0-15.45-2.78-17.4-23.67-17.4h-20.47v27.98h-25.76v-94.67ZM303.41,165.51c15.18,0,17.82-2.37,17.82-13.09v-2.37c0-10.72-2.65-12.67-17.96-12.67h-25.9v28.12h26.03Z"/>
  <rect class="cls-1" x="362.3" y="117.57" width="22.14" height="22.14" rx="11.07" ry="11.07"/>
  <path class="cls-1" d="M384.43,145.78v66.79h-22.13v-66.79c3.18,2.07,6.99,3.27,11.07,3.27s7.88-1.2,11.07-3.27Z"/>
  <path class="cls-1" d="M398.91,145.74h21.86v10.02h.14c3.48-7.8,9.47-11.14,19.91-11.14h.98c18.66,0,23.95,6.13,23.95,27.43v40.51h-22.14v-38.01c0-10.58-1.39-12.95-10.3-12.95h-1.11c-8.77,0-11.14,3.2-11.14,13.09v37.87h-22.14v-66.83Z"/>
  <path class="cls-2" d="M481.47,117.9h60c28.96,0,35.64,7.38,35.64,28.26v2.78c0,14.76-4.04,22.14-15.04,24.64v.56c12.39,2.09,15.18,6.13,15.18,23.53v14.9h-25.9v-10.58c0-15.45-2.78-17.4-23.67-17.4h-20.46v27.98h-25.76v-94.67ZM533.26,165.51c15.17,0,17.82-2.37,17.82-13.09v-2.37c0-10.72-2.65-12.67-17.96-12.67h-25.89v28.12h26.03Z"/>
  <path class="cls-2" d="M620.55,138.08h-33.41v-20.19h92.86v20.19h-33.27v74.48h-26.17v-74.48Z"/>
</svg>