<?xml version="1.0" encoding="UTF-8"?>
<svg id="Layer_1" data-name="Layer 1" xmlns="http://www.w3.org/2000/svg" width="150" height="80">
  <defs>
    <style>
      .cls-1 {
        fill: #fff;
        stroke-width: 0px;
      }
    </style>
  </defs>
  <path class="cls-1" d="M46.77,11.09s.03-.03,0-.07c-.03-.05-.12-.17-.31-.44-.23-.34-1.67-2.34-3.55-4.03S35.36,0,26.32,0,10.51,5.14,7.22,8.81s-4.82,7.55-4.87,7.66-.06.13-.02.15c.05.02.07-.05.12-.16s1.74-3.79,5.38-6.77S17.56,3.26,26.41,3.26c7.56,0,13,2.69,15.5,4.18s4.08,2.98,4.43,3.31c.2.19.3.28.36.33.04.03.06.03.08.01Z"/>
  <path class="cls-1" d="M.16,25.24s.04,0,.04.02c.02.04,0,.14,0,.34,0,.16-.18,4.55,2.05,9.18s6.4,9.76,12.93,13.03,12.24,3.56,16.78,3.06c4.37-.48,7.73-2.12,8.09-2.27.15-.06.18-.1.2-.07,0,0,0,.02,0,.03-.01.03-.07.06-.15.14-.12.11-.32.27-.59.47-.51.38-1.53,1.31-4.96,2.77-4.91,2.09-13.14,3.4-21.36-1.05C5.32,46.61,1.79,39.22.59,33.58-.31,29.32.08,25.76.09,25.47c0-.1,0-.16.02-.2,0-.03.02-.03.05-.03Z"/>
  <path class="cls-1" d="M30.4,33.29v-6.22l4.47-9.61h-3.49l-2.67,6.3-2.67-6.3h-3.63l4.45,9.63v6.2h3.53ZM60.12,30.33h-4.77v-12.87h-3.53v15.83h8.3v-2.96ZM18.11,26.56c-1.12-2.23-4.64-8.7-4.81-9.01l-.05-.09h-3.56v15.83h3.24v-9.34c1.15,2.19,4.96,8.93,5.14,9.25l.05.09h3.23v-15.83h-3.24v9.1ZM46.8,27.74v-10.28h-3.38v10.13c0,2.08-.59,2.92-2.02,2.92s-2.02-.83-2.02-2.94v-10.11h-3.53v10.3c0,3.84,1.85,5.78,5.51,5.78s5.45-1.9,5.45-5.8ZM64.42,49.99c-.41.66-1.22,1.36-2.26,1.36-1.1,0-1.7-.78-1.82-2.39h6.24v-.74c0-3.93-1.7-6.18-4.65-6.18-2.3,0-4.99,1.57-4.99,5.99,0,3.74,1.9,5.97,5.07,5.97,1.93,0,3.4-.78,4.5-2.38l.09-.13-2.08-1.67-.1.17ZM61.93,44.75c.33,0,1.3,0,1.49,2.1h-3.05c.17-1.36.72-2.1,1.56-2.1ZM100.29,21.56c-1.43,0-2.65.48-3.54,1.39-1.03,1.05-1.55,2.6-1.55,4.6,0,4.4,2.63,5.97,5.09,5.97s5.09-1.57,5.09-5.97c0-2-.52-3.54-1.56-4.6-.89-.91-2.11-1.39-3.53-1.39ZM100.29,30.81c-.71,0-1.65-.34-1.65-3.26,0-2.21.51-3.19,1.65-3.19.71,0,1.65.33,1.65,3.19,0,2.25-.51,3.26-1.65,3.26ZM99.48,42.04c-1.36,0-2.48.72-3.15,1.46v-6.01l-3.45.46v15.82h3.45v-7.86c.67-.6,1.26-.91,1.77-.91.43,0,.83.14.83,1.12v7.64h3.42v-8.63c0-2.03-.99-3.1-2.87-3.1ZM125.54,29.34l-.1.17c-.41.66-1.22,1.36-2.26,1.36-1.1,0-1.7-.78-1.82-2.39h6.24v-.74c0-3.93-1.7-6.18-4.65-6.18-2.3,0-4.99,1.57-4.99,5.99,0,3.74,1.9,5.97,5.07,5.97,1.93,0,3.4-.78,4.5-2.38l.09-.13-2.08-1.67ZM122.95,24.27c.33,0,1.3,0,1.49,2.1h-3.05c.17-1.36.72-2.1,1.56-2.1ZM113.6,21.56c-1.36,0-2.48.72-3.15,1.46v-1.23h-3.45v11.5h3.45v-7.86c.67-.6,1.26-.91,1.77-.91.43,0,.83.14.83,1.12v7.64h3.42v-8.63c0-2.03-.99-3.1-2.87-3.1ZM88.98,38.47l-3.42.46v3.35h-1.59v2.63h1.59v5.91c0,2.28.93,3.08,3.56,3.08.7,0,1.73-.08,1.98-.15l.12-.04v-2.61l-.24.1c-.11.05-.55.11-.85.11-.94,0-1.14-.23-1.14-1.27v-5.14h2.39v-2.63h-2.39v-3.8ZM79.77,21.56c-1.36,0-2.48.72-3.15,1.46v-1.23h-3.45v11.5h3.45v-7.86c.67-.6,1.26-.91,1.77-.91.43,0,.83.14.83,1.12v7.64h3.42v-8.63c0-2.03-.99-3.1-2.87-3.1ZM67.83,33.29h3.43l-.09-.23c-.19-.51-.26-1.25-.26-2.66v-4.96c0-2.65-1.18-3.88-3.71-3.88-2,0-3.79.64-5.18,1.84l-.12.11,1.6,2.11.14-.1c.6-.44,1.78-1.18,2.97-1.18.69,0,.96.31.96,1.1v.32c-4.04.76-6,2.26-6,4.58,0,1.96,1.05,3.08,2.89,3.08,1.26,0,2.29-.44,3.13-1.35.03.48.12.82.2,1.1l.04.12ZM67.58,29.92c-.56.52-1.17.78-1.79.78-.56,0-.87-.33-.87-.93,0-.66.31-1.47,2.66-2.02v2.18ZM77.08,50.88v-4.96c0-2.65-1.18-3.88-3.71-3.88-2,0-3.79.64-5.18,1.84l-.12.11,1.6,2.11.14-.1c.6-.44,1.78-1.18,2.97-1.18.69,0,.96.31.96,1.1v.32c-4.04.76-6,2.26-6,4.58,0,1.96,1.05,3.08,2.89,3.08,1.26,0,2.29-.44,3.13-1.35.03.48.12.82.2,1.1l.04.12h3.43l-.09-.23c-.19-.51-.26-1.25-.26-2.66ZM73.74,50.4c-.56.52-1.17.78-1.79.78-.56,0-.87-.33-.87-.93,0-.66.31-1.47,2.66-2.02v2.18ZM79.2,53.77h3.45v-14.46l-3.45.46v14ZM51.77,44.11h-4.97v-5.93h-3.53v15.59h3.53v-6.67h4.97v6.67h3.53v-15.59h-3.53v5.93ZM83.8,34.83c0,1.83,1.5,2.54,4.86,2.54s5.8-1.29,5.8-3.46-1.32-2.99-4.72-3.22l-1.44-.07c-.84-.09-.87-.28-.87-.48,0-.07.02-.19.18-.33.43.1.9.15,1.38.15,2.78,0,4.51-1.61,4.51-4.19,0-.39-.07-.8-.2-1.23.57-.1,1.07-.1,1.32-.1h.17v-2.92l-.19.02c-.81.09-1.78.52-2.43,1.07-.78-.69-1.87-1.05-3.18-1.05-2.79,0-4.59,1.65-4.59,4.21,0,1.35.53,2.49,1.49,3.26-.8.58-1.3,1.39-1.3,2.12,0,.58.25,1.06.72,1.43-1.02.59-1.51,1.33-1.51,2.26ZM89.01,24.02c1.1,0,1.33,1,1.33,1.83,0,1.18-.49,1.86-1.33,1.86-1.16,0-1.33-1.16-1.33-1.86s.17-1.83,1.33-1.83ZM87.3,33.29c.07,0,.14,0,.21,0l1.69.15c2.08.15,2.18.44,2.18.95,0,.65-.88,1.08-2.25,1.08-1.92,0-2.32-.47-2.32-1.18,0-.37.17-.71.49-1Z"/>
</svg>